<mxfile host="app.diagrams.net" agent="Mozilla/5.0 (Windows NT 10.0; Win64; x64) AppleWebKit/537.36 (KHTML, like Gecko) Chrome/139.0.0.0 Safari/537.36" version="28.1.0">
  <diagram name="PÃ¡gina-1" id="v6O4y2mOnEL9k0rmWZft">
    <mxGraphModel dx="1042" dy="535" grid="1" gridSize="10" guides="1" tooltips="1" connect="1" arrows="1" fold="1" page="1" pageScale="1" pageWidth="827" pageHeight="1169" math="0" shadow="0">
      <root>
        <mxCell id="0" />
        <mxCell id="1" parent="0" />
        <mxCell id="xlA5JM1TE_DIV7nqG6T6-4" value="&lt;b&gt;NOTIFICATION SERVICE&lt;/b&gt;" style="rhombus;whiteSpace=wrap;html=1;fillColor=#dae8fc;strokeColor=#6c8ebf;rounded=1;" parent="1" vertex="1">
          <mxGeometry x="60" y="60" width="120" height="110" as="geometry" />
        </mxCell>
        <mxCell id="xlA5JM1TE_DIV7nqG6T6-5" value="&lt;b&gt;AUTH&amp;nbsp;&lt;/b&gt;&lt;div&gt;&lt;b&gt;SERVICE&lt;/b&gt;&lt;/div&gt;" style="rhombus;whiteSpace=wrap;html=1;fillColor=#fff2cc;strokeColor=#d6b656;rounded=1;" parent="1" vertex="1">
          <mxGeometry x="60" y="210" width="120" height="110" as="geometry" />
        </mxCell>
        <mxCell id="xlA5JM1TE_DIV7nqG6T6-6" value="&lt;b&gt;USERS&lt;/b&gt;&lt;div&gt;&lt;b&gt;SERVICES&lt;/b&gt;&lt;/div&gt;" style="rhombus;whiteSpace=wrap;html=1;fillColor=#f8cecc;strokeColor=#b85450;rounded=1;" parent="1" vertex="1">
          <mxGeometry x="60" y="370" width="120" height="110" as="geometry" />
        </mxCell>
        <mxCell id="xlA5JM1TE_DIV7nqG6T6-7" value="&lt;b&gt;GIGS&lt;/b&gt;&lt;div&gt;&lt;b&gt;SERVICES&lt;/b&gt;&lt;/div&gt;" style="rhombus;whiteSpace=wrap;html=1;fillColor=#d5e8d4;strokeColor=#82b366;rounded=1;" parent="1" vertex="1">
          <mxGeometry x="430" y="60" width="120" height="110" as="geometry" />
        </mxCell>
        <mxCell id="xlA5JM1TE_DIV7nqG6T6-8" value="&lt;b&gt;CHAT&lt;/b&gt;&lt;div&gt;&lt;b&gt;SERVICES&lt;/b&gt;&lt;/div&gt;" style="rhombus;whiteSpace=wrap;html=1;fillColor=#b0e3e6;strokeColor=#0e8088;rounded=1;" parent="1" vertex="1">
          <mxGeometry x="430" y="210" width="120" height="110" as="geometry" />
        </mxCell>
        <mxCell id="xlA5JM1TE_DIV7nqG6T6-9" value="&lt;b&gt;ORDER&lt;/b&gt;&lt;div&gt;&lt;b&gt;SERVICES&lt;/b&gt;&lt;/div&gt;" style="rhombus;whiteSpace=wrap;html=1;fillColor=#fad7ac;strokeColor=#b46504;rounded=1;" parent="1" vertex="1">
          <mxGeometry x="430" y="370" width="120" height="110" as="geometry" />
        </mxCell>
        <mxCell id="xlA5JM1TE_DIV7nqG6T6-10" value="&lt;b&gt;REVIEW&lt;/b&gt;&lt;div&gt;&lt;b&gt;SERVICES&lt;/b&gt;&lt;/div&gt;" style="rhombus;whiteSpace=wrap;html=1;fillColor=#fff2cc;gradientColor=#ffd966;strokeColor=#d6b656;rounded=1;" parent="1" vertex="1">
          <mxGeometry x="820" y="60" width="120" height="110" as="geometry" />
        </mxCell>
        <mxCell id="xlA5JM1TE_DIV7nqG6T6-12" value="Handles sending emails users&lt;div&gt;&lt;br&gt;&lt;/div&gt;" style="text;html=1;align=center;verticalAlign=middle;whiteSpace=wrap;rounded=1;" parent="1" vertex="1">
          <mxGeometry x="184" y="110" width="166" height="30" as="geometry" />
        </mxCell>
        <mxCell id="xlA5JM1TE_DIV7nqG6T6-14" value="&lt;div&gt;Handles users authentication&lt;/div&gt;" style="text;html=1;align=center;verticalAlign=middle;whiteSpace=wrap;rounded=1;" parent="1" vertex="1">
          <mxGeometry x="180" y="240" width="170" height="50" as="geometry" />
        </mxCell>
        <mxCell id="xlA5JM1TE_DIV7nqG6T6-15" value="Handles&amp;nbsp; sellers and buyers profiles" style="text;html=1;align=center;verticalAlign=middle;whiteSpace=wrap;rounded=1;" parent="1" vertex="1">
          <mxGeometry x="184" y="400" width="200" height="50" as="geometry" />
        </mxCell>
        <mxCell id="xlA5JM1TE_DIV7nqG6T6-16" value="&lt;div&gt;Handles gig CRUD&amp;nbsp;&lt;span style=&quot;background-color: transparent; color: light-dark(rgb(0, 0, 0), rgb(255, 255, 255));&quot;&gt;operations&lt;/span&gt;&lt;/div&gt;" style="text;html=1;align=center;verticalAlign=middle;whiteSpace=wrap;rounded=1;" parent="1" vertex="1">
          <mxGeometry x="540" y="90" width="210" height="50" as="geometry" />
        </mxCell>
        <mxCell id="xlA5JM1TE_DIV7nqG6T6-17" value="&lt;div&gt;Handles buyers and sellers messaging&lt;/div&gt;" style="text;html=1;align=center;verticalAlign=middle;whiteSpace=wrap;rounded=1;" parent="1" vertex="1">
          <mxGeometry x="550" y="240" width="236" height="50" as="geometry" />
        </mxCell>
        <mxCell id="xlA5JM1TE_DIV7nqG6T6-18" value="Handles orders and payments" style="text;html=1;align=center;verticalAlign=middle;whiteSpace=wrap;rounded=1;" parent="1" vertex="1">
          <mxGeometry x="560" y="400" width="170" height="50" as="geometry" />
        </mxCell>
        <mxCell id="xlA5JM1TE_DIV7nqG6T6-19" value="&lt;div&gt;Handles reviews and ratings&lt;/div&gt;" style="text;html=1;align=center;verticalAlign=middle;whiteSpace=wrap;rounded=1;" parent="1" vertex="1">
          <mxGeometry x="950" y="90" width="170" height="50" as="geometry" />
        </mxCell>
      </root>
    </mxGraphModel>
  </diagram>
</mxfile>
